<?xml version="1.0" encoding="UTF-8"?>
<svg width="521px" height="276px" viewBox="0 0 521 276" version="1.1" xmlns="http://www.w3.org/2000/svg" xmlns:xlink="http://www.w3.org/1999/xlink">
    <title>Structure definition</title>
    <g id="Structure-definition" stroke="none" stroke-width="1" fill="none" fill-rule="evenodd">
        <g id="Structure-Definition" transform="translate(158.600000, 24.192000)" fill="#10162F" fill-rule="nonzero">
            <path d="M0.192,3.36 C0.192,5.264 1.632,6.368 3.184,6.768 L4.368,7.088 C5.504,7.376 6.064,7.936 6.064,8.8 C6.064,9.664 5.376,10.176 4.464,10.176 C3.216,10.176 2.496,9.28 2.32,7.968 L0,7.968 C0.256,10.448 1.936,12.016 4.528,12.016 C6.464,12.016 8.48,10.944 8.48,8.416 C8.48,6.064 6.592,5.312 5.056,4.928 L4.048,4.672 C3.008,4.416 2.592,3.872 2.592,3.136 C2.592,2.352 3.216,1.84 4.096,1.84 C5.136,1.84 5.792,2.528 5.936,3.664 L8.24,3.664 C7.984,1.088 6.176,0 4.224,0 C2.256,0 0.192,1.056 0.192,3.36 Z" id="Path"></path>
            <path d="M12.496,3.2 L10,3.2 L10,4.944 L12.496,4.944 L12.496,9.472 C12.496,11.184 13.024,11.808 14.896,11.808 L18.128,11.808 L18.128,10.08 L15.744,10.08 C15.072,10.08 14.8,9.92 14.8,9.104 L14.8,4.944 L18.16,4.944 L18.16,3.2 L14.8,3.2 L14.8,0.896 L12.496,0.896 L12.496,3.2 Z" id="Path"></path>
            <path d="M20.912,3.2 L20.912,4.944 L23.056,4.944 L23.056,10.08 L20.912,10.08 L20.912,11.808 L28.48,11.808 L28.48,10.08 L25.36,10.08 L25.36,7.408 C25.36,5.728 25.92,5.04 27.376,5.04 L29.024,5.04 L29.024,3.2 L27.712,3.2 C26.352,3.2 25.68,3.92 25.328,4.656 L25.328,3.2 L20.912,3.2 Z" id="Path"></path>
            <path d="M36.64,11.808 L38.944,11.808 L38.944,3.2 L36.64,3.2 L36.64,7.776 C36.64,9.088 36.4,10.24 35.12,10.24 C33.952,10.24 33.856,9.152 33.856,8.24 L33.856,3.2 L31.552,3.2 L31.552,8.624 C31.552,10.688 32.368,12.016 34.448,12.016 C35.36,12.016 36.144,11.648 36.64,10.864 L36.64,11.808 Z" id="Path"></path>
            <path d="M45.6,3.008 C43.072,3.008 41.616,4.832 41.616,7.52 C41.616,10.128 43.04,12.016 45.552,12.016 C47.28,12.016 49.12,10.992 49.424,8.656 L47.216,8.656 C47.008,9.968 46.288,10.32 45.584,10.32 C44.56,10.32 43.92,9.456 43.92,7.52 C43.92,5.584 44.528,4.704 45.584,4.704 C46.608,4.704 47.04,5.392 47.168,6.304 L49.344,6.304 C49.088,4.016 47.28,3.008 45.6,3.008 Z" id="Path"></path>
            <path d="M53.84,3.2 L51.344,3.2 L51.344,4.944 L53.84,4.944 L53.84,9.472 C53.84,11.184 54.368,11.808 56.24,11.808 L59.472,11.808 L59.472,10.08 L57.088,10.08 C56.416,10.08 56.144,9.92 56.144,9.104 L56.144,4.944 L59.504,4.944 L59.504,3.2 L56.144,3.2 L56.144,0.896 L53.84,0.896 L53.84,3.2 Z" id="Path"></path>
            <path d="M67.648,11.808 L69.952,11.808 L69.952,3.2 L67.648,3.2 L67.648,7.776 C67.648,9.088 67.408,10.24 66.128,10.24 C64.96,10.24 64.864,9.152 64.864,8.24 L64.864,3.2 L62.56,3.2 L62.56,8.624 C62.56,10.688 63.376,12.016 65.456,12.016 C66.368,12.016 67.152,11.648 67.648,10.864 L67.648,11.808 Z" id="Path"></path>
            <path d="M72.592,3.2 L72.592,4.944 L74.736,4.944 L74.736,10.08 L72.592,10.08 L72.592,11.808 L80.16,11.808 L80.16,10.08 L77.04,10.08 L77.04,7.408 C77.04,5.728 77.6,5.04 79.056,5.04 L80.704,5.04 L80.704,3.2 L79.392,3.2 C78.032,3.2 77.36,3.92 77.008,4.656 L77.008,3.2 L72.592,3.2 Z" id="Path"></path>
            <path d="M90.912,8.096 C90.992,4.928 89.472,3.008 86.88,3.008 C84.32,3.008 82.832,4.832 82.832,7.584 C82.832,10.224 84.224,12.016 86.912,12.016 C89.232,12.016 90.528,10.576 90.768,9.12 L88.576,9.12 C88.4,9.92 87.856,10.384 86.944,10.384 C85.984,10.384 85.12,9.68 85.04,8.096 L90.912,8.096 Z M86.848,4.656 C87.76,4.656 88.672,5.072 88.72,6.64 L85.04,6.64 C85.168,5.184 86.112,4.656 86.848,4.656 Z" id="Shape"></path>
            <path d="M109.408,6 C109.408,9.056 108.192,9.84 106.24,9.84 L106.032,9.84 L106.032,2.16 L106.24,2.16 C108.192,2.16 109.408,2.928 109.408,6 Z M103.632,0.208 L103.632,11.808 L106.288,11.808 C109.456,11.808 111.952,10.416 111.952,6 C111.952,1.568 109.504,0.208 106.352,0.208 L103.632,0.208 Z" id="Shape"></path>
            <path d="M121.92,8.096 C122,4.928 120.48,3.008 117.888,3.008 C115.328,3.008 113.84,4.832 113.84,7.584 C113.84,10.224 115.232,12.016 117.92,12.016 C120.24,12.016 121.536,10.576 121.776,9.12 L119.584,9.12 C119.408,9.92 118.864,10.384 117.952,10.384 C116.992,10.384 116.128,9.68 116.048,8.096 L121.92,8.096 Z M117.856,4.656 C118.768,4.656 119.68,5.072 119.728,6.64 L116.048,6.64 C116.176,5.184 117.12,4.656 117.856,4.656 Z" id="Shape"></path>
            <path d="M126.176,3.2 L123.68,3.2 L123.68,4.928 L126.176,4.928 L126.176,11.808 L128.48,11.808 L128.48,4.928 L132.112,4.928 L132.112,3.2 L128.48,3.2 L128.48,2.72 C128.48,2.048 128.672,1.92 129.632,1.92 L132.112,1.92 L132.112,0.208 L129.344,0.208 C127.296,0.208 126.176,0.544 126.176,2.736 L126.176,3.2 Z" id="Path"></path>
            <path d="M142.272,11.808 L142.272,10.08 L139.76,10.08 L139.76,3.2 L134.96,3.2 L134.96,4.928 L137.456,4.928 L137.456,10.08 L134.96,10.08 L134.96,11.808 L142.272,11.808 Z M137.456,0.208 L137.456,2.336 L139.76,2.336 L139.76,0.208 L137.456,0.208 Z" id="Shape"></path>
            <path d="M145.184,3.2 L145.184,11.808 L147.488,11.808 L147.488,7.248 C147.488,5.936 147.712,4.784 149.008,4.784 C150.176,4.784 150.272,5.872 150.272,6.784 L150.272,11.808 L152.576,11.808 L152.576,6.4 C152.576,4.336 151.76,3.008 149.776,3.008 C148.768,3.008 147.984,3.44 147.488,4.208 L147.488,3.2 L145.184,3.2 Z" id="Path"></path>
            <path d="M162.944,11.808 L162.944,10.08 L160.432,10.08 L160.432,3.2 L155.632,3.2 L155.632,4.928 L158.128,4.928 L158.128,10.08 L155.632,10.08 L155.632,11.808 L162.944,11.808 Z M158.128,0.208 L158.128,2.336 L160.432,2.336 L160.432,0.208 L158.128,0.208 Z" id="Shape"></path>
            <path d="M167.536,3.2 L165.04,3.2 L165.04,4.944 L167.536,4.944 L167.536,9.472 C167.536,11.184 168.064,11.808 169.936,11.808 L173.168,11.808 L173.168,10.08 L170.784,10.08 C170.112,10.08 169.84,9.92 169.84,9.104 L169.84,4.944 L173.2,4.944 L173.2,3.2 L169.84,3.2 L169.84,0.896 L167.536,0.896 L167.536,3.2 Z" id="Path"></path>
            <path d="M183.616,11.808 L183.616,10.08 L181.104,10.08 L181.104,3.2 L176.304,3.2 L176.304,4.928 L178.8,4.928 L178.8,10.08 L176.304,10.08 L176.304,11.808 L183.616,11.808 Z M178.8,0.208 L178.8,2.336 L181.104,2.336 L181.104,0.208 L178.8,0.208 Z" id="Shape"></path>
            <path d="M194.368,7.504 C194.368,4.208 192.352,3.008 190.256,3.008 C188.144,3.008 186.144,4.208 186.144,7.504 C186.144,10.8 188.144,12.016 190.256,12.016 C192.352,12.016 194.368,10.8 194.368,7.504 Z M192.064,7.504 C192.064,9.488 191.36,10.32 190.256,10.32 C189.152,10.32 188.448,9.488 188.448,7.504 C188.448,5.52 189.152,4.704 190.256,4.704 C191.36,4.704 192.064,5.52 192.064,7.504 Z" id="Shape"></path>
            <path d="M196.864,3.2 L196.864,11.808 L199.168,11.808 L199.168,7.248 C199.168,5.936 199.392,4.784 200.688,4.784 C201.856,4.784 201.952,5.872 201.952,6.784 L201.952,11.808 L204.256,11.808 L204.256,6.4 C204.256,4.336 203.44,3.008 201.456,3.008 C200.448,3.008 199.664,3.44 199.168,4.208 L199.168,3.2 L196.864,3.2 Z" id="Path"></path>
        </g>
        <g id="Structure-Name" transform="translate(247.828000, 74.144000)" fill="#10162F" fill-rule="nonzero">
            <path d="M2.352,4.752 L3.3,4.98 C4.248,5.196 4.932,5.604 4.932,6.504 C4.932,7.5 4.044,7.956 3.18,7.956 C2.064,7.956 1.248,7.308 1.128,6.144 L0,6.144 C0.096,7.872 1.38,9.012 3.144,9.012 C4.824,9.012 6.084,8.04 6.084,6.42 C6.084,4.764 4.86,4.152 3.456,3.84 L2.592,3.648 C1.896,3.492 1.332,3.12 1.332,2.352 C1.332,1.452 2.16,1.056 2.952,1.056 C3.744,1.056 4.644,1.404 4.776,2.448 L5.904,2.448 C5.712,0.72 4.356,0 3.012,0 C1.452,0 0.156,0.888 0.156,2.388 C0.156,3.768 1.212,4.5 2.352,4.752 Z" id="Path"></path>
            <path d="M9.288,2.4 L7.452,2.4 L7.452,3.348 L9.288,3.348 L9.288,7.236 C9.288,8.58 9.624,8.856 10.8,8.856 L13.032,8.856 L13.032,7.908 L11.04,7.908 C10.428,7.908 10.392,7.74 10.392,7.08 L10.392,3.348 L13.032,3.348 L13.032,2.4 L10.392,2.4 L10.392,0.78 L9.288,0.78 L9.288,2.4 Z" id="Path"></path>
            <path d="M15.708,2.4 L15.708,3.348 L17.544,3.348 L17.544,7.908 L15.72,7.908 L15.72,8.856 L20.856,8.856 L20.856,7.908 L18.648,7.908 L18.648,5.64 C18.648,4.224 19.128,3.408 20.364,3.408 L21.456,3.408 L21.456,2.4 L20.352,2.4 C19.56,2.4 18.936,2.832 18.624,3.552 L18.624,2.4 L15.708,2.4 Z" id="Path"></path>
            <path d="M27.696,8.856 L28.8,8.856 L28.8,2.4 L27.696,2.4 L27.696,5.952 C27.696,7.332 27.156,8.064 26.16,8.064 C24.96,8.064 24.9,7.212 24.9,6.168 L24.9,2.4 L23.796,2.4 L23.796,6.552 C23.796,7.98 24.24,9.012 25.8,9.012 C26.832,9.012 27.348,8.58 27.696,8.028 L27.696,8.856 Z" id="Path"></path>
            <path d="M34.176,2.292 C32.328,2.292 31.212,3.732 31.212,5.652 C31.212,7.62 32.28,9.012 34.068,9.012 C35.508,9.012 36.66,8.064 36.84,6.78 L35.7,6.78 C35.556,7.476 35.004,8.112 34.128,8.112 C33.168,8.112 32.376,7.296 32.376,5.652 C32.376,4.032 33.168,3.204 34.128,3.204 C34.92,3.204 35.508,3.756 35.652,4.548 L36.768,4.548 C36.672,3.384 35.676,2.292 34.176,2.292 Z" id="Path"></path>
            <path d="M40.296,2.4 L38.46,2.4 L38.46,3.348 L40.296,3.348 L40.296,7.236 C40.296,8.58 40.632,8.856 41.808,8.856 L44.04,8.856 L44.04,7.908 L42.048,7.908 C41.436,7.908 41.4,7.74 41.4,7.08 L41.4,3.348 L44.04,3.348 L44.04,2.4 L41.4,2.4 L41.4,0.78 L40.296,0.78 L40.296,2.4 Z" id="Path"></path>
            <path d="M50.952,8.856 L52.056,8.856 L52.056,2.4 L50.952,2.4 L50.952,5.952 C50.952,7.332 50.412,8.064 49.416,8.064 C48.216,8.064 48.156,7.212 48.156,6.168 L48.156,2.4 L47.052,2.4 L47.052,6.552 C47.052,7.98 47.496,9.012 49.056,9.012 C50.088,9.012 50.604,8.58 50.952,8.028 L50.952,8.856 Z" id="Path"></path>
            <path d="M54.468,2.4 L54.468,3.348 L56.304,3.348 L56.304,7.908 L54.48,7.908 L54.48,8.856 L59.616,8.856 L59.616,7.908 L57.408,7.908 L57.408,5.64 C57.408,4.224 57.888,3.408 59.124,3.408 L60.216,3.408 L60.216,2.4 L59.112,2.4 C58.32,2.4 57.696,2.832 57.384,3.552 L57.384,2.4 L54.468,2.4 Z" id="Path"></path>
            <path d="M65.1,9.012 C66.612,9.012 67.62,8.148 67.884,6.924 L66.744,6.924 C66.516,7.656 66.036,8.112 65.076,8.112 C64.056,8.112 63.336,7.26 63.336,5.964 L67.98,5.964 C68.064,3.66 66.984,2.28 65.1,2.28 C63.396,2.28 62.172,3.576 62.172,5.652 C62.172,7.56 63.144,9.012 65.1,9.012 Z M65.1,3.192 C66.228,3.192 66.816,3.996 66.804,5.052 L63.348,5.052 C63.396,3.804 64.056,3.192 65.1,3.192 Z" id="Shape"></path>
            <polygon id="Path" points="83.376 8.856 83.376 0.156 82.236 0.156 82.236 7.56 79.452 0.156 77.748 0.156 77.748 8.856 78.888 8.856 78.888 1.428 81.672 8.856"></polygon>
            <path d="M87.672,9.012 C88.872,9.012 89.544,8.58 89.94,7.908 L89.952,8.856 L91.008,8.856 C90.972,8.424 90.912,7.5 90.924,6.42 L90.936,4.848 C90.96,3.06 90.192,2.268 88.404,2.268 C87.06,2.268 85.836,3.048 85.728,4.44 L86.856,4.44 C86.928,3.648 87.396,3.156 88.392,3.156 C89.232,3.156 89.844,3.492 89.844,4.608 L89.844,4.884 C87.204,5.172 85.572,5.64 85.572,7.176 C85.572,8.34 86.508,9.012 87.672,9.012 Z M89.928,5.94 C89.928,7.656 88.968,8.124 87.984,8.124 C87.204,8.124 86.76,7.764 86.76,7.152 C86.76,6.228 87.96,5.952 89.928,5.76 L89.928,5.94 Z" id="Shape"></path>
            <path d="M96.396,3.108 C96.252,2.676 95.976,2.292 95.388,2.292 C94.776,2.292 94.428,2.664 94.212,3.084 L94.212,2.4 L93.156,2.4 L93.156,8.856 L94.26,8.856 L94.26,5.22 C94.26,3.876 94.428,3.216 94.992,3.216 C95.532,3.216 95.532,3.936 95.532,4.872 L95.532,8.856 L96.636,8.856 L96.636,5.196 C96.636,3.864 96.804,3.216 97.356,3.216 C97.908,3.216 97.908,3.936 97.908,4.872 L97.908,8.856 L99.012,8.856 L99.012,4.308 C99.012,2.604 98.352,2.292 97.68,2.292 C97.092,2.292 96.672,2.604 96.396,3.108 Z" id="Path"></path>
            <path d="M103.86,9.012 C105.372,9.012 106.38,8.148 106.644,6.924 L105.504,6.924 C105.276,7.656 104.796,8.112 103.836,8.112 C102.816,8.112 102.096,7.26 102.096,5.964 L106.74,5.964 C106.824,3.66 105.744,2.28 103.86,2.28 C102.156,2.28 100.932,3.576 100.932,5.652 C100.932,7.56 101.904,9.012 103.86,9.012 Z M103.86,3.192 C104.988,3.192 105.576,3.996 105.564,5.052 L102.108,5.052 C102.156,3.804 102.816,3.192 103.86,3.192 Z" id="Shape"></path>
        </g>
        <g id="Keyword" transform="translate(27.296000, 74.300000)" fill="#10162F" fill-rule="nonzero">
            <polygon id="Path" points="1.14 5.68434189e-14 0 5.68434189e-14 0 8.7 1.14 8.7 1.14 5.748 2.22 4.356 4.62 8.7 5.928 8.7 2.964 3.396 5.592 5.68434189e-14 4.248 5.68434189e-14 1.14 4.164"></polygon>
            <path d="M10.368,8.856 C11.88,8.856 12.888,7.992 13.152,6.768 L12.012,6.768 C11.784,7.5 11.304,7.956 10.344,7.956 C9.324,7.956 8.604,7.104 8.604,5.808 L13.248,5.808 C13.332,3.504 12.252,2.124 10.368,2.124 C8.664,2.124 7.44,3.42 7.44,5.496 C7.44,7.404 8.412,8.856 10.368,8.856 Z M10.368,3.036 C11.496,3.036 12.084,3.84 12.072,4.896 L8.616,4.896 C8.664,3.648 9.324,3.036 10.368,3.036 Z" id="Shape"></path>
            <path d="M16.404,10.8 C17.772,10.8 18.132,10.248 18.588,8.976 L20.976,2.244 L19.836,2.244 L18.12,7.224 L16.368,2.244 L15.156,2.244 L17.568,8.7 L17.52,8.844 C17.184,9.768 16.968,9.852 16.296,9.852 L15.132,9.852 L15.132,10.8 L16.404,10.8 Z" id="Path"></path>
            <polygon id="Path" points="25.308 3.54 24.348 7.02 23.7 2.244 22.572 2.244 23.652 8.7 24.768 8.7 25.824 4.8 26.88 8.7 27.996 8.7 29.076 2.244 27.96 2.244 27.3 7.02 26.34 3.54"></polygon>
            <path d="M31.764,5.496 C31.764,3.78 32.604,3.06 33.588,3.06 C34.572,3.06 35.412,3.78 35.412,5.496 C35.412,7.212 34.572,7.932 33.588,7.932 C32.604,7.932 31.764,7.212 31.764,5.496 Z M30.6,5.496 C30.6,7.836 32.112,8.856 33.588,8.856 C35.064,8.856 36.576,7.836 36.576,5.496 C36.576,3.156 35.064,2.136 33.588,2.136 C32.112,2.136 30.6,3.156 30.6,5.496 Z" id="Shape"></path>
            <path d="M38.496,2.244 L38.496,3.192 L40.332,3.192 L40.332,7.752 L38.508,7.752 L38.508,8.7 L43.644,8.7 L43.644,7.752 L41.436,7.752 L41.436,5.484 C41.436,4.068 41.916,3.252 43.152,3.252 L44.244,3.252 L44.244,2.244 L43.14,2.244 C42.348,2.244 41.724,2.676 41.412,3.396 L41.412,2.244 L38.496,2.244 Z" id="Path"></path>
            <path d="M50.544,3.216 C50.184,2.592 49.608,2.136 48.636,2.136 C47.148,2.136 46.032,3.372 46.032,5.496 C46.032,7.632 47.148,8.856 48.636,8.856 C49.608,8.856 50.184,8.4 50.544,7.788 L50.556,8.7 L51.648,8.7 L51.648,5.68434189e-14 L50.544,5.68434189e-14 L50.544,3.216 Z M50.592,5.496 C50.592,7.188 49.788,7.944 48.864,7.944 C47.76,7.944 47.196,7.032 47.196,5.496 C47.196,3.96 47.76,3.06 48.864,3.06 C49.788,3.06 50.592,3.792 50.592,5.496 Z" id="Shape"></path>
        </g>
        <g id="Group" transform="translate(97.470000, 118.850000)" fill="#10162F" fill-rule="nonzero">
            <g id="struct-Bottle-{-char">
                <path d="M5.95,4.676 C5.67,3.332 4.578,2.492 2.982,2.492 C1.722,2.492 0.14,3.122 0.14,4.578 C0.14,5.88 1.078,6.468 2.268,6.706 L3.206,6.888 C4.158,7.056 4.788,7.406 4.788,8.106 C4.788,8.988 3.906,9.268 3.108,9.268 C2.058,9.268 1.526,8.764 1.358,7.896 L0,7.896 C0.14,9.1 1.12,10.332 3.08,10.332 C4.718,10.332 6.09,9.548 6.09,7.952 C6.09,6.44 4.69,5.95 3.388,5.698 L2.548,5.53 C1.806,5.376 1.414,5.11 1.414,4.522 C1.414,3.85 2.17,3.556 2.926,3.556 C3.78,3.556 4.438,3.836 4.606,4.676 L5.95,4.676 Z" id="Path"></path>
                <path d="M10.332,2.618 L8.19,2.618 L8.19,3.724 L10.332,3.724 L10.332,8.26 C10.332,9.828 10.724,10.15 12.096,10.15 L14.7,10.15 L14.7,9.044 L12.376,9.044 C11.662,9.044 11.62,8.848 11.62,8.078 L11.62,3.724 L14.7,3.724 L14.7,2.618 L11.62,2.618 L11.62,0.728 L10.332,0.728 L10.332,2.618 Z" id="Path"></path>
                <path d="M17.822,2.618 L17.822,3.724 L19.964,3.724 L19.964,9.044 L17.836,9.044 L17.836,10.15 L23.828,10.15 L23.828,9.044 L21.252,9.044 L21.252,6.398 C21.252,4.746 21.812,3.794 23.254,3.794 L24.528,3.794 L24.528,2.618 L23.24,2.618 C22.316,2.618 21.588,3.122 21.224,3.962 L21.224,2.618 L17.822,2.618 Z" id="Path"></path>
                <path d="M31.808,10.15 L33.096,10.15 L33.096,2.618 L31.808,2.618 L31.808,6.762 C31.808,8.372 31.178,9.226 30.016,9.226 C28.616,9.226 28.546,8.232 28.546,7.014 L28.546,2.618 L27.258,2.618 L27.258,7.462 C27.258,9.128 27.776,10.332 29.596,10.332 C30.8,10.332 31.402,9.828 31.808,9.184 L31.808,10.15 Z" id="Path"></path>
                <path d="M39.368,2.492 C37.212,2.492 35.91,4.172 35.91,6.412 C35.91,8.708 37.156,10.332 39.242,10.332 C40.922,10.332 42.266,9.226 42.476,7.728 L41.146,7.728 C40.978,8.54 40.334,9.282 39.312,9.282 C38.192,9.282 37.268,8.33 37.268,6.412 C37.268,4.522 38.192,3.556 39.312,3.556 C40.236,3.556 40.922,4.2 41.09,5.124 L42.392,5.124 C42.28,3.766 41.118,2.492 39.368,2.492 Z" id="Path"></path>
                <path d="M46.508,2.618 L44.366,2.618 L44.366,3.724 L46.508,3.724 L46.508,8.26 C46.508,9.828 46.9,10.15 48.272,10.15 L50.876,10.15 L50.876,9.044 L48.552,9.044 C47.838,9.044 47.796,8.848 47.796,8.078 L47.796,3.724 L50.876,3.724 L50.876,2.618 L47.796,2.618 L47.796,0.728 L46.508,0.728 L46.508,2.618 Z" id="Path"></path>
                <path d="M63.238,10.15 L66.542,10.15 C68.362,10.15 69.944,9.296 69.944,7.14 C69.944,5.894 69.426,5.138 68.558,4.732 C69.202,4.326 69.566,3.472 69.566,2.506 C69.566,0.49 67.928,0 66.234,0 L63.238,0 L63.238,10.15 Z M64.568,5.502 L66.556,5.502 C67.928,5.502 68.572,5.964 68.572,7.154 C68.572,8.302 67.928,8.89 66.654,8.89 L64.568,8.89 L64.568,5.502 Z M64.568,1.26 L66.514,1.26 C67.536,1.26 68.236,1.666 68.236,2.702 C68.236,3.892 67.564,4.312 66.514,4.312 L64.568,4.312 L64.568,1.26 Z" id="Shape"></path>
                <path d="M73.276,6.412 C73.276,4.41 74.256,3.57 75.404,3.57 C76.552,3.57 77.532,4.41 77.532,6.412 C77.532,8.414 76.552,9.254 75.404,9.254 C74.256,9.254 73.276,8.414 73.276,6.412 Z M71.918,6.412 C71.918,9.142 73.682,10.332 75.404,10.332 C77.126,10.332 78.89,9.142 78.89,6.412 C78.89,3.682 77.126,2.492 75.404,2.492 C73.682,2.492 71.918,3.682 71.918,6.412 Z" id="Shape"></path>
                <path d="M82.684,2.618 L80.542,2.618 L80.542,3.724 L82.684,3.724 L82.684,8.26 C82.684,9.828 83.076,10.15 84.448,10.15 L87.052,10.15 L87.052,9.044 L84.728,9.044 C84.014,9.044 83.972,8.848 83.972,8.078 L83.972,3.724 L87.052,3.724 L87.052,2.618 L83.972,2.618 L83.972,0.728 L82.684,0.728 L82.684,2.618 Z" id="Path"></path>
                <path d="M91.728,2.618 L89.586,2.618 L89.586,3.724 L91.728,3.724 L91.728,8.26 C91.728,9.828 92.12,10.15 93.492,10.15 L96.096,10.15 L96.096,9.044 L93.772,9.044 C93.058,9.044 93.016,8.848 93.016,8.078 L93.016,3.724 L96.096,3.724 L96.096,2.618 L93.016,2.618 L93.016,0.728 L91.728,0.728 L91.728,2.618 Z" id="Path"></path>
                <polygon id="Path" points="99.806 0 99.806 1.092 101.934 1.092 101.934 9.044 99.806 9.044 99.806 10.15 105.364 10.15 105.364 9.044 103.222 9.044 103.222 0"></polygon>
                <path d="M111.622,10.332 C113.386,10.332 114.562,9.324 114.87,7.896 L113.54,7.896 C113.274,8.75 112.714,9.282 111.594,9.282 C110.404,9.282 109.564,8.288 109.564,6.776 L114.982,6.776 C115.08,4.088 113.82,2.478 111.622,2.478 C109.634,2.478 108.206,3.99 108.206,6.412 C108.206,8.638 109.34,10.332 111.622,10.332 Z M111.622,3.542 C112.938,3.542 113.624,4.48 113.61,5.712 L109.578,5.712 C109.634,4.256 110.404,3.542 111.622,3.542 Z" id="Shape"></path>
                <path d="M130.886,12.6 L131.558,12.6 L131.558,11.522 L130.914,11.522 C130.256,11.522 130.13,11.326 130.13,10.542 L130.13,8.232 C130.13,6.93 129.696,6.51 128.954,6.314 L128.954,6.286 C129.696,6.09 130.13,5.67 130.13,4.368 L130.13,2.058 C130.13,1.274 130.256,1.078 130.914,1.078 L131.558,1.078 L131.558,0 L130.886,0 C129.192,0 128.856,0.504 128.856,2.072 L128.856,4.34 C128.856,5.208 128.716,5.782 127.792,5.782 L127.792,6.818 C128.716,6.818 128.856,7.378 128.856,8.26 L128.856,10.528 C128.856,12.096 129.192,12.6 130.886,12.6 Z" id="Path"></path>
                <path d="M12.236,29.492 C10.08,29.492 8.778,31.172 8.778,33.412 C8.778,35.708 10.024,37.332 12.11,37.332 C13.79,37.332 15.134,36.226 15.344,34.728 L14.014,34.728 C13.846,35.54 13.202,36.282 12.18,36.282 C11.06,36.282 10.136,35.33 10.136,33.412 C10.136,31.522 11.06,30.556 12.18,30.556 C13.104,30.556 13.79,31.2 13.958,32.124 L15.26,32.124 C15.148,30.766 13.986,29.492 12.236,29.492 Z" id="Path"></path>
                <path d="M21.728,29.492 C20.566,29.492 19.894,30.024 19.502,30.682 L19.502,27 L18.214,27 L18.214,37.15 L19.502,37.15 L19.502,33.062 C19.502,31.452 20.146,30.57 21.308,30.57 C22.708,30.57 22.792,31.592 22.792,32.81 L22.792,37.15 L24.08,37.15 L24.08,32.362 C24.08,30.696 23.548,29.492 21.728,29.492 Z" id="Path"></path>
                <path d="M29.428,37.332 C30.828,37.332 31.612,36.828 32.074,36.044 L32.088,37.15 L33.32,37.15 C33.278,36.646 33.208,35.568 33.222,34.308 L33.236,32.474 C33.264,30.388 32.368,29.464 30.282,29.464 C28.714,29.464 27.286,30.374 27.16,31.998 L28.476,31.998 C28.56,31.074 29.106,30.5 30.268,30.5 C31.248,30.5 31.962,30.892 31.962,32.194 L31.962,32.516 C28.882,32.852 26.978,33.398 26.978,35.19 C26.978,36.548 28.07,37.332 29.428,37.332 Z M32.06,33.748 C32.06,35.75 30.94,36.296 29.792,36.296 C28.882,36.296 28.364,35.876 28.364,35.162 C28.364,34.084 29.764,33.762 32.06,33.538 L32.06,33.748 Z" id="Shape"></path>
                <path d="M35.91,29.618 L35.91,30.724 L38.052,30.724 L38.052,36.044 L35.924,36.044 L35.924,37.15 L41.916,37.15 L41.916,36.044 L39.34,36.044 L39.34,33.398 C39.34,31.746 39.9,30.794 41.342,30.794 L42.616,30.794 L42.616,29.618 L41.328,29.618 C40.404,29.618 39.676,30.122 39.312,30.962 L39.312,29.618 L35.91,29.618 Z" id="Path"></path>
                <polygon id="Path" points="48.678 27 47.824 27 47.824 28.68 46.242 28.078 45.962 28.862 47.544 29.408 46.564 30.78 47.306 31.27 48.258 29.856 49.294 31.27 49.938 30.766 48.972 29.408 50.582 28.862 50.26 28.078 48.678 28.68"></polygon>
                <path d="M64.722,29.618 L63.434,29.618 L63.434,37.15 L64.722,37.15 L64.722,33.062 C64.722,31.452 65.352,30.584 66.514,30.584 C67.914,30.584 68.012,31.592 68.012,32.81 L68.012,37.15 L69.3,37.15 L69.3,32.362 C69.3,30.696 68.754,29.492 66.934,29.492 C65.744,29.492 65.1,30.038 64.722,30.682 L64.722,29.618 Z" id="Path"></path>
                <path d="M74.648,37.332 C76.048,37.332 76.832,36.828 77.294,36.044 L77.308,37.15 L78.54,37.15 C78.498,36.646 78.428,35.568 78.442,34.308 L78.456,32.474 C78.484,30.388 77.588,29.464 75.502,29.464 C73.934,29.464 72.506,30.374 72.38,31.998 L73.696,31.998 C73.78,31.074 74.326,30.5 75.488,30.5 C76.468,30.5 77.182,30.892 77.182,32.194 L77.182,32.516 C74.102,32.852 72.198,33.398 72.198,35.19 C72.198,36.548 73.29,37.332 74.648,37.332 Z M77.28,33.748 C77.28,35.75 76.16,36.296 75.012,36.296 C74.102,36.296 73.584,35.876 73.584,35.162 C73.584,34.084 74.984,33.762 77.28,33.538 L77.28,33.748 Z" id="Shape"></path>
                <path d="M84.826,30.444 C84.658,29.94 84.336,29.492 83.65,29.492 C82.936,29.492 82.53,29.926 82.278,30.416 L82.278,29.618 L81.046,29.618 L81.046,37.15 L82.334,37.15 L82.334,32.908 C82.334,31.34 82.53,30.57 83.188,30.57 C83.818,30.57 83.818,31.41 83.818,32.502 L83.818,37.15 L85.106,37.15 L85.106,32.88 C85.106,31.326 85.302,30.57 85.946,30.57 C86.59,30.57 86.59,31.41 86.59,32.502 L86.59,37.15 L87.878,37.15 L87.878,31.844 C87.878,29.856 87.108,29.492 86.324,29.492 C85.638,29.492 85.148,29.856 84.826,30.444 Z" id="Path"></path>
                <path d="M93.534,37.332 C95.298,37.332 96.474,36.324 96.782,34.896 L95.452,34.896 C95.186,35.75 94.626,36.282 93.506,36.282 C92.316,36.282 91.476,35.288 91.476,33.776 L96.894,33.776 C96.992,31.088 95.732,29.478 93.534,29.478 C91.546,29.478 90.118,30.99 90.118,33.412 C90.118,35.638 91.252,37.332 93.534,37.332 Z M93.534,30.542 C94.85,30.542 95.536,31.48 95.522,32.712 L91.49,32.712 C91.546,31.256 92.316,30.542 93.534,30.542 Z" id="Shape"></path>
                <path d="M103.334,31.228 L103.334,29.618 L101.724,29.618 L101.724,31.228 L103.334,31.228 Z M101.724,37.15 L102.41,37.15 L101.668,39.096 L102.48,39.096 L103.334,37.262 L103.334,35.54 L101.724,35.54 L101.724,37.15 Z" id="Shape"></path>
                <path d="M11.578,54 L11.578,55.526 L12.866,55.526 L12.866,54 L11.578,54 Z M9.45,56.618 L9.45,57.724 L11.578,57.724 L11.578,63.044 L9.45,63.044 L9.45,64.15 L15.008,64.15 L15.008,63.044 L12.866,63.044 L12.866,56.618 L9.45,56.618 Z" id="Shape"></path>
                <path d="M19.502,56.618 L18.214,56.618 L18.214,64.15 L19.502,64.15 L19.502,60.062 C19.502,58.452 20.132,57.584 21.294,57.584 C22.694,57.584 22.792,58.592 22.792,59.81 L22.792,64.15 L24.08,64.15 L24.08,59.362 C24.08,57.696 23.534,56.492 21.714,56.492 C20.524,56.492 19.88,57.038 19.502,57.682 L19.502,56.618 Z" id="Path"></path>
                <path d="M28.42,56.618 L26.278,56.618 L26.278,57.724 L28.42,57.724 L28.42,62.26 C28.42,63.828 28.812,64.15 30.184,64.15 L32.788,64.15 L32.788,63.044 L30.464,63.044 C29.75,63.044 29.708,62.848 29.708,62.078 L29.708,57.724 L32.788,57.724 L32.788,56.618 L29.708,56.618 L29.708,54.728 L28.42,54.728 L28.42,56.618 Z" id="Path"></path>
                <path d="M48.65,57.444 C48.482,56.94 48.16,56.492 47.474,56.492 C46.76,56.492 46.354,56.926 46.102,57.416 L46.102,56.618 L44.87,56.618 L44.87,64.15 L46.158,64.15 L46.158,59.908 C46.158,58.34 46.354,57.57 47.012,57.57 C47.642,57.57 47.642,58.41 47.642,59.502 L47.642,64.15 L48.93,64.15 L48.93,59.88 C48.93,58.326 49.126,57.57 49.77,57.57 C50.414,57.57 50.414,58.41 50.414,59.502 L50.414,64.15 L51.702,64.15 L51.702,58.844 C51.702,56.856 50.932,56.492 50.148,56.492 C49.462,56.492 48.972,56.856 48.65,57.444 Z" id="Path"></path>
                <path d="M56.56,64.332 C57.96,64.332 58.744,63.828 59.206,63.044 L59.22,64.15 L60.452,64.15 C60.41,63.646 60.34,62.568 60.354,61.308 L60.368,59.474 C60.396,57.388 59.5,56.464 57.414,56.464 C55.846,56.464 54.418,57.374 54.292,58.998 L55.608,58.998 C55.692,58.074 56.238,57.5 57.4,57.5 C58.38,57.5 59.094,57.892 59.094,59.194 L59.094,59.516 C56.014,59.852 54.11,60.398 54.11,62.19 C54.11,63.548 55.202,64.332 56.56,64.332 Z M59.192,60.748 C59.192,62.75 58.072,63.296 56.924,63.296 C56.014,63.296 55.496,62.876 55.496,62.162 C55.496,61.084 56.896,60.762 59.192,60.538 L59.192,60.748 Z" id="Shape"></path>
                <polygon id="Path" points="69.552 56.618 68.124 56.618 66.36 59.208 64.61 56.618 63.168 56.618 65.632 60.286 63.014 64.15 64.47 64.15 66.36 61.35 68.25 64.15 69.706 64.15 67.074 60.272"></polygon>
                <path d="M77.644,61 C77.462,62.218 76.818,63.1 75.53,63.1 C73.976,63.1 73.178,61.56 73.178,59.054 C73.178,56.464 74.032,55.05 75.502,55.05 C76.79,55.05 77.42,56.058 77.588,57.22 L78.946,57.22 C78.61,55.162 77.294,53.804 75.544,53.804 C73.122,53.804 71.806,55.904 71.806,59.054 C71.806,62.134 72.968,64.332 75.446,64.332 C77.28,64.332 78.624,63.17 78.974,61 L77.644,61 Z" id="Path"></path>
                <path d="M83.692,64.332 C85.092,64.332 85.876,63.828 86.338,63.044 L86.352,64.15 L87.584,64.15 C87.542,63.646 87.472,62.568 87.486,61.308 L87.5,59.474 C87.528,57.388 86.632,56.464 84.546,56.464 C82.978,56.464 81.55,57.374 81.424,58.998 L82.74,58.998 C82.824,58.074 83.37,57.5 84.532,57.5 C85.512,57.5 86.226,57.892 86.226,59.194 L86.226,59.516 C83.146,59.852 81.242,60.398 81.242,62.19 C81.242,63.548 82.334,64.332 83.692,64.332 Z M86.324,60.748 C86.324,62.75 85.204,63.296 84.056,63.296 C83.146,63.296 82.628,62.876 82.628,62.162 C82.628,61.084 84.028,60.762 86.324,60.538 L86.324,60.748 Z" id="Shape"></path>
                <path d="M91.798,56.618 L90.51,56.618 L90.51,66.6 L91.798,66.6 L91.798,63.086 C92.218,63.8 92.904,64.332 94.024,64.332 C95.76,64.332 97.062,62.904 97.062,60.412 C97.062,57.934 95.76,56.492 94.024,56.492 C92.904,56.492 92.218,57.024 91.798,57.752 L91.798,56.618 Z M91.742,60.412 C91.742,58.424 92.68,57.57 93.758,57.57 C95.046,57.57 95.704,58.62 95.704,60.412 C95.704,62.204 95.046,63.268 93.758,63.268 C92.68,63.268 91.742,62.4 91.742,60.412 Z" id="Shape"></path>
                <path d="M101.78,64.332 C103.18,64.332 103.964,63.828 104.426,63.044 L104.44,64.15 L105.672,64.15 C105.63,63.646 105.56,62.568 105.574,61.308 L105.588,59.474 C105.616,57.388 104.72,56.464 102.634,56.464 C101.066,56.464 99.638,57.374 99.512,58.998 L100.828,58.998 C100.912,58.074 101.458,57.5 102.62,57.5 C103.6,57.5 104.314,57.892 104.314,59.194 L104.314,59.516 C101.234,59.852 99.33,60.398 99.33,62.19 C99.33,63.548 100.422,64.332 101.78,64.332 Z M104.412,60.748 C104.412,62.75 103.292,63.296 102.144,63.296 C101.234,63.296 100.716,62.876 100.716,62.162 C100.716,61.084 102.116,60.762 104.412,60.538 L104.412,60.748 Z" id="Shape"></path>
                <path d="M111.72,56.492 C109.564,56.492 108.262,58.172 108.262,60.412 C108.262,62.708 109.508,64.332 111.594,64.332 C113.274,64.332 114.618,63.226 114.828,61.728 L113.498,61.728 C113.33,62.54 112.686,63.282 111.664,63.282 C110.544,63.282 109.62,62.33 109.62,60.412 C109.62,58.522 110.544,57.556 111.664,57.556 C112.588,57.556 113.274,58.2 113.442,59.124 L114.744,59.124 C114.632,57.766 113.47,56.492 111.72,56.492 Z" id="Path"></path>
                <path d="M120.106,54 L120.106,55.526 L121.394,55.526 L121.394,54 L120.106,54 Z M117.978,56.618 L117.978,57.724 L120.106,57.724 L120.106,63.044 L117.978,63.044 L117.978,64.15 L123.536,64.15 L123.536,63.044 L121.394,63.044 L121.394,56.618 L117.978,56.618 Z" id="Shape"></path>
                <path d="M127.904,56.618 L125.762,56.618 L125.762,57.724 L127.904,57.724 L127.904,62.26 C127.904,63.828 128.296,64.15 129.668,64.15 L132.272,64.15 L132.272,63.044 L129.948,63.044 C129.234,63.044 129.192,62.848 129.192,62.078 L129.192,57.724 L132.272,57.724 L132.272,56.618 L129.192,56.618 L129.192,54.728 L127.904,54.728 L127.904,56.618 Z" id="Path"></path>
                <path d="M136.752,66.6 C138.348,66.6 138.768,65.956 139.3,64.472 L142.086,56.618 L140.756,56.618 L138.754,62.428 L136.71,56.618 L135.296,56.618 L138.11,64.15 L138.054,64.318 C137.662,65.396 137.41,65.494 136.626,65.494 L135.268,65.494 L135.268,66.6 L136.752,66.6 Z" id="Path"></path>
                <path d="M148.554,58.228 L148.554,56.618 L146.944,56.618 L146.944,58.228 L148.554,58.228 Z M146.944,64.15 L147.63,64.15 L146.888,66.096 L147.7,66.096 L148.554,64.262 L148.554,62.54 L146.944,62.54 L146.944,64.15 Z" id="Shape"></path>
                <path d="M11.578,81 L11.578,82.526 L12.866,82.526 L12.866,81 L11.578,81 Z M9.45,83.618 L9.45,84.724 L11.578,84.724 L11.578,90.044 L9.45,90.044 L9.45,91.15 L15.008,91.15 L15.008,90.044 L12.866,90.044 L12.866,83.618 L9.45,83.618 Z" id="Shape"></path>
                <path d="M19.502,83.618 L18.214,83.618 L18.214,91.15 L19.502,91.15 L19.502,87.062 C19.502,85.452 20.132,84.584 21.294,84.584 C22.694,84.584 22.792,85.592 22.792,86.81 L22.792,91.15 L24.08,91.15 L24.08,86.362 C24.08,84.696 23.534,83.492 21.714,83.492 C20.524,83.492 19.88,84.038 19.502,84.682 L19.502,83.618 Z" id="Path"></path>
                <path d="M28.42,83.618 L26.278,83.618 L26.278,84.724 L28.42,84.724 L28.42,89.26 C28.42,90.828 28.812,91.15 30.184,91.15 L32.788,91.15 L32.788,90.044 L30.464,90.044 C29.75,90.044 29.708,89.848 29.708,89.078 L29.708,84.724 L32.788,84.724 L32.788,83.618 L29.708,83.618 L29.708,81.728 L28.42,81.728 L28.42,83.618 Z" id="Path"></path>
                <path d="M48.412,83.492 C46.256,83.492 44.954,85.172 44.954,87.412 C44.954,89.708 46.2,91.332 48.286,91.332 C49.966,91.332 51.31,90.226 51.52,88.728 L50.19,88.728 C50.022,89.54 49.378,90.282 48.356,90.282 C47.236,90.282 46.312,89.33 46.312,87.412 C46.312,85.522 47.236,84.556 48.356,84.556 C49.28,84.556 49.966,85.2 50.134,86.124 L51.436,86.124 C51.324,84.766 50.162,83.492 48.412,83.492 Z" id="Path"></path>
                <path d="M58.94,91.15 L60.228,91.15 L60.228,83.618 L58.94,83.618 L58.94,87.762 C58.94,89.372 58.31,90.226 57.148,90.226 C55.748,90.226 55.678,89.232 55.678,88.014 L55.678,83.618 L54.39,83.618 L54.39,88.462 C54.39,90.128 54.908,91.332 56.728,91.332 C57.932,91.332 58.534,90.828 58.94,90.184 L58.94,91.15 Z" id="Path"></path>
                <path d="M63.042,83.618 L63.042,84.724 L65.184,84.724 L65.184,90.044 L63.056,90.044 L63.056,91.15 L69.048,91.15 L69.048,90.044 L66.472,90.044 L66.472,87.398 C66.472,85.746 67.032,84.794 68.474,84.794 L69.748,84.794 L69.748,83.618 L68.46,83.618 C67.536,83.618 66.808,84.122 66.444,84.962 L66.444,83.618 L63.042,83.618 Z" id="Path"></path>
                <path d="M72.086,83.618 L72.086,84.724 L74.228,84.724 L74.228,90.044 L72.1,90.044 L72.1,91.15 L78.092,91.15 L78.092,90.044 L75.516,90.044 L75.516,87.398 C75.516,85.746 76.076,84.794 77.518,84.794 L78.792,84.794 L78.792,83.618 L77.504,83.618 C76.58,83.618 75.852,84.122 75.488,84.962 L75.488,83.618 L72.086,83.618 Z" id="Path"></path>
                <path d="M84.49,91.332 C86.254,91.332 87.43,90.324 87.738,88.896 L86.408,88.896 C86.142,89.75 85.582,90.282 84.462,90.282 C83.272,90.282 82.432,89.288 82.432,87.776 L87.85,87.776 C87.948,85.088 86.688,83.478 84.49,83.478 C82.502,83.478 81.074,84.99 81.074,87.412 C81.074,89.638 82.208,91.332 84.49,91.332 Z M84.49,84.542 C85.806,84.542 86.492,85.48 86.478,86.712 L82.446,86.712 C82.502,85.256 83.272,84.542 84.49,84.542 Z" id="Shape"></path>
                <path d="M91.854,83.618 L90.566,83.618 L90.566,91.15 L91.854,91.15 L91.854,87.062 C91.854,85.452 92.484,84.584 93.646,84.584 C95.046,84.584 95.144,85.592 95.144,86.81 L95.144,91.15 L96.432,91.15 L96.432,86.362 C96.432,84.696 95.886,83.492 94.066,83.492 C92.876,83.492 92.232,84.038 91.854,84.682 L91.854,83.618 Z" id="Path"></path>
                <path d="M100.772,83.618 L98.63,83.618 L98.63,84.724 L100.772,84.724 L100.772,89.26 C100.772,90.828 101.164,91.15 102.536,91.15 L105.14,91.15 L105.14,90.044 L102.816,90.044 C102.102,90.044 102.06,89.848 102.06,89.078 L102.06,84.724 L105.14,84.724 L105.14,83.618 L102.06,83.618 L102.06,81.728 L100.772,81.728 L100.772,83.618 Z" id="Path"></path>
                <path d="M113.82,88 C113.638,89.218 112.994,90.1 111.706,90.1 C110.152,90.1 109.354,88.56 109.354,86.054 C109.354,83.464 110.208,82.05 111.678,82.05 C112.966,82.05 113.596,83.058 113.764,84.22 L115.122,84.22 C114.786,82.162 113.47,80.804 111.72,80.804 C109.298,80.804 107.982,82.904 107.982,86.054 C107.982,89.134 109.144,91.332 111.622,91.332 C113.456,91.332 114.8,90.17 115.15,88 L113.82,88 Z" id="Path"></path>
                <path d="M119.868,91.332 C121.268,91.332 122.052,90.828 122.514,90.044 L122.528,91.15 L123.76,91.15 C123.718,90.646 123.648,89.568 123.662,88.308 L123.676,86.474 C123.704,84.388 122.808,83.464 120.722,83.464 C119.154,83.464 117.726,84.374 117.6,85.998 L118.916,85.998 C119,85.074 119.546,84.5 120.708,84.5 C121.688,84.5 122.402,84.892 122.402,86.194 L122.402,86.516 C119.322,86.852 117.418,87.398 117.418,89.19 C117.418,90.548 118.51,91.332 119.868,91.332 Z M122.5,87.748 C122.5,89.75 121.38,90.296 120.232,90.296 C119.322,90.296 118.804,89.876 118.804,89.162 C118.804,88.084 120.204,87.762 122.5,87.538 L122.5,87.748 Z" id="Shape"></path>
                <path d="M127.974,83.618 L126.686,83.618 L126.686,93.6 L127.974,93.6 L127.974,90.086 C128.394,90.8 129.08,91.332 130.2,91.332 C131.936,91.332 133.238,89.904 133.238,87.412 C133.238,84.934 131.936,83.492 130.2,83.492 C129.08,83.492 128.394,84.024 127.974,84.752 L127.974,83.618 Z M127.918,87.412 C127.918,85.424 128.856,84.57 129.934,84.57 C131.222,84.57 131.88,85.62 131.88,87.412 C131.88,89.204 131.222,90.268 129.934,90.268 C128.856,90.268 127.918,89.4 127.918,87.412 Z" id="Shape"></path>
                <path d="M137.956,91.332 C139.356,91.332 140.14,90.828 140.602,90.044 L140.616,91.15 L141.848,91.15 C141.806,90.646 141.736,89.568 141.75,88.308 L141.764,86.474 C141.792,84.388 140.896,83.464 138.81,83.464 C137.242,83.464 135.814,84.374 135.688,85.998 L137.004,85.998 C137.088,85.074 137.634,84.5 138.796,84.5 C139.776,84.5 140.49,84.892 140.49,86.194 L140.49,86.516 C137.41,86.852 135.506,87.398 135.506,89.19 C135.506,90.548 136.598,91.332 137.956,91.332 Z M140.588,87.748 C140.588,89.75 139.468,90.296 138.32,90.296 C137.41,90.296 136.892,89.876 136.892,89.162 C136.892,88.084 138.292,87.762 140.588,87.538 L140.588,87.748 Z" id="Shape"></path>
                <path d="M147.896,83.492 C145.74,83.492 144.438,85.172 144.438,87.412 C144.438,89.708 145.684,91.332 147.77,91.332 C149.45,91.332 150.794,90.226 151.004,88.728 L149.674,88.728 C149.506,89.54 148.862,90.282 147.84,90.282 C146.72,90.282 145.796,89.33 145.796,87.412 C145.796,85.522 146.72,84.556 147.84,84.556 C148.764,84.556 149.45,85.2 149.618,86.124 L150.92,86.124 C150.808,84.766 149.646,83.492 147.896,83.492 Z" id="Path"></path>
                <path d="M156.282,81 L156.282,82.526 L157.57,82.526 L157.57,81 L156.282,81 Z M154.154,83.618 L154.154,84.724 L156.282,84.724 L156.282,90.044 L154.154,90.044 L154.154,91.15 L159.712,91.15 L159.712,90.044 L157.57,90.044 L157.57,83.618 L154.154,83.618 Z" id="Shape"></path>
                <path d="M164.08,83.618 L161.938,83.618 L161.938,84.724 L164.08,84.724 L164.08,89.26 C164.08,90.828 164.472,91.15 165.844,91.15 L168.448,91.15 L168.448,90.044 L166.124,90.044 C165.41,90.044 165.368,89.848 165.368,89.078 L165.368,84.724 L168.448,84.724 L168.448,83.618 L165.368,83.618 L165.368,81.728 L164.08,81.728 L164.08,83.618 Z" id="Path"></path>
                <path d="M172.928,93.6 C174.524,93.6 174.944,92.956 175.476,91.472 L178.262,83.618 L176.932,83.618 L174.93,89.428 L172.886,83.618 L171.472,83.618 L174.286,91.15 L174.23,91.318 C173.838,92.396 173.586,92.494 172.802,92.494 L171.444,92.494 L171.444,93.6 L172.928,93.6 Z" id="Path"></path>
                <path d="M184.73,85.228 L184.73,83.618 L183.12,83.618 L183.12,85.228 L184.73,85.228 Z M183.12,91.15 L183.806,91.15 L183.064,93.096 L183.876,93.096 L184.73,91.262 L184.73,89.54 L183.12,89.54 L183.12,91.15 Z" id="Shape"></path>
                <path d="M1.162,120.6 L1.82,120.6 C3.514,120.6 3.85,120.096 3.85,118.528 L3.85,116.26 C3.85,115.378 3.99,114.818 4.928,114.818 L4.928,113.782 C3.99,113.782 3.85,113.208 3.85,112.34 L3.85,110.072 C3.85,108.504 3.514,108 1.82,108 L1.162,108 L1.162,109.078 L1.792,109.078 C2.45,109.078 2.576,109.274 2.576,110.058 L2.576,112.368 C2.576,113.67 3.01,114.09 3.752,114.286 L3.752,114.314 C3.01,114.51 2.576,114.93 2.576,116.232 L2.576,118.542 C2.576,119.326 2.45,119.522 1.792,119.522 L1.162,119.522 L1.162,120.6 Z" id="Path"></path>
                <path d="M12.894,112.228 L12.894,110.618 L11.284,110.618 L11.284,112.228 L12.894,112.228 Z M11.284,118.15 L11.97,118.15 L11.228,120.096 L12.04,120.096 L12.894,118.262 L12.894,116.54 L11.284,116.54 L11.284,118.15 Z" id="Shape"></path>
            </g>
            <g id="Member-Variable-Decl" transform="translate(227.146000, 27.000000)">
                <polygon id="Path" points="4.578 6.65 6.062 1.302 6.062 10.15 7.392 10.15 7.392 0 5.306 0 3.906 5.194 2.506 0 0.42 0 0.42 10.15 1.75 10.15 1.75 1.302 3.234 6.65"></polygon>
                <path d="M12.992,10.332 C14.756,10.332 15.932,9.324 16.24,7.896 L14.91,7.896 C14.644,8.75 14.084,9.282 12.964,9.282 C11.774,9.282 10.934,8.288 10.934,6.776 L16.352,6.776 C16.45,4.088 15.19,2.478 12.992,2.478 C11.004,2.478 9.576,3.99 9.576,6.412 C9.576,8.638 10.71,10.332 12.992,10.332 Z M12.992,3.542 C14.308,3.542 14.994,4.48 14.98,5.712 L10.948,5.712 C11.004,4.256 11.774,3.542 12.992,3.542 Z" id="Shape"></path>
                <path d="M22.372,3.444 C22.204,2.94 21.882,2.492 21.196,2.492 C20.482,2.492 20.076,2.926 19.824,3.416 L19.824,2.618 L18.592,2.618 L18.592,10.15 L19.88,10.15 L19.88,5.908 C19.88,4.34 20.076,3.57 20.734,3.57 C21.364,3.57 21.364,4.41 21.364,5.502 L21.364,10.15 L22.652,10.15 L22.652,5.88 C22.652,4.326 22.848,3.57 23.492,3.57 C24.136,3.57 24.136,4.41 24.136,5.502 L24.136,10.15 L25.424,10.15 L25.424,4.844 C25.424,2.856 24.654,2.492 23.87,2.492 C23.184,2.492 22.694,2.856 22.372,3.444 Z" id="Path"></path>
                <path d="M29.344,0 L28.056,0 L28.056,10.15 L29.33,10.15 L29.344,9.086 C29.778,9.8 30.45,10.332 31.584,10.332 C33.306,10.332 34.608,8.904 34.608,6.412 C34.608,3.934 33.306,2.492 31.584,2.492 C30.45,2.492 29.778,3.024 29.344,3.752 L29.344,0 Z M29.288,6.412 C29.288,4.424 30.24,3.57 31.304,3.57 C32.606,3.57 33.25,4.62 33.25,6.412 C33.25,8.204 32.606,9.268 31.304,9.268 C30.24,9.268 29.288,8.4 29.288,6.412 Z" id="Shape"></path>
                <path d="M40.124,10.332 C41.888,10.332 43.064,9.324 43.372,7.896 L42.042,7.896 C41.776,8.75 41.216,9.282 40.096,9.282 C38.906,9.282 38.066,8.288 38.066,6.776 L43.484,6.776 C43.582,4.088 42.322,2.478 40.124,2.478 C38.136,2.478 36.708,3.99 36.708,6.412 C36.708,8.638 37.842,10.332 40.124,10.332 Z M40.124,3.542 C41.44,3.542 42.126,4.48 42.112,5.712 L38.08,5.712 C38.136,4.256 38.906,3.542 40.124,3.542 Z" id="Shape"></path>
                <path d="M45.808,2.618 L45.808,3.724 L47.95,3.724 L47.95,9.044 L45.822,9.044 L45.822,10.15 L51.814,10.15 L51.814,9.044 L49.238,9.044 L49.238,6.398 C49.238,4.746 49.798,3.794 51.24,3.794 L52.514,3.794 L52.514,2.618 L51.226,2.618 C50.302,2.618 49.574,3.122 49.21,3.962 L49.21,2.618 L45.808,2.618 Z" id="Path"></path>
                <polygon id="Path" points="3.192 37.15 4.606 37.15 7.798 27 6.37 27 3.892 35.372 1.428 27 0 27"></polygon>
                <path d="M12.194,37.332 C13.594,37.332 14.378,36.828 14.84,36.044 L14.854,37.15 L16.086,37.15 C16.044,36.646 15.974,35.568 15.988,34.308 L16.002,32.474 C16.03,30.388 15.134,29.464 13.048,29.464 C11.48,29.464 10.052,30.374 9.926,31.998 L11.242,31.998 C11.326,31.074 11.872,30.5 13.034,30.5 C14.014,30.5 14.728,30.892 14.728,32.194 L14.728,32.516 C11.648,32.852 9.744,33.398 9.744,35.19 C9.744,36.548 10.836,37.332 12.194,37.332 Z M14.826,33.748 C14.826,35.75 13.706,36.296 12.558,36.296 C11.648,36.296 11.13,35.876 11.13,35.162 C11.13,34.084 12.53,33.762 14.826,33.538 L14.826,33.748 Z" id="Shape"></path>
                <path d="M18.676,29.618 L18.676,30.724 L20.818,30.724 L20.818,36.044 L18.69,36.044 L18.69,37.15 L24.682,37.15 L24.682,36.044 L22.106,36.044 L22.106,33.398 C22.106,31.746 22.666,30.794 24.108,30.794 L25.382,30.794 L25.382,29.618 L24.094,29.618 C23.17,29.618 22.442,30.122 22.078,30.962 L22.078,29.618 L18.676,29.618 Z" id="Path"></path>
                <path d="M30.52,27 L30.52,28.526 L31.808,28.526 L31.808,27 L30.52,27 Z M28.392,29.618 L28.392,30.724 L30.52,30.724 L30.52,36.044 L28.392,36.044 L28.392,37.15 L33.95,37.15 L33.95,36.044 L31.808,36.044 L31.808,29.618 L28.392,29.618 Z" id="Shape"></path>
                <path d="M39.326,37.332 C40.726,37.332 41.51,36.828 41.972,36.044 L41.986,37.15 L43.218,37.15 C43.176,36.646 43.106,35.568 43.12,34.308 L43.134,32.474 C43.162,30.388 42.266,29.464 40.18,29.464 C38.612,29.464 37.184,30.374 37.058,31.998 L38.374,31.998 C38.458,31.074 39.004,30.5 40.166,30.5 C41.146,30.5 41.86,30.892 41.86,32.194 L41.86,32.516 C38.78,32.852 36.876,33.398 36.876,35.19 C36.876,36.548 37.968,37.332 39.326,37.332 Z M41.958,33.748 C41.958,35.75 40.838,36.296 39.69,36.296 C38.78,36.296 38.262,35.876 38.262,35.162 C38.262,34.084 39.662,33.762 41.958,33.538 L41.958,33.748 Z" id="Shape"></path>
                <path d="M47.432,27 L46.144,27 L46.144,37.15 L47.418,37.15 L47.432,36.086 C47.866,36.8 48.538,37.332 49.672,37.332 C51.394,37.332 52.696,35.904 52.696,33.412 C52.696,30.934 51.394,29.492 49.672,29.492 C48.538,29.492 47.866,30.024 47.432,30.752 L47.432,27 Z M47.376,33.412 C47.376,31.424 48.328,30.57 49.392,30.57 C50.694,30.57 51.338,31.62 51.338,33.412 C51.338,35.204 50.694,36.268 49.392,36.268 C48.328,36.268 47.376,35.4 47.376,33.412 Z" id="Shape"></path>
                <polygon id="Path" points="55.44 27 55.44 28.092 57.568 28.092 57.568 36.044 55.44 36.044 55.44 37.15 60.998 37.15 60.998 36.044 58.856 36.044 58.856 27"></polygon>
                <path d="M67.256,37.332 C69.02,37.332 70.196,36.324 70.504,34.896 L69.174,34.896 C68.908,35.75 68.348,36.282 67.228,36.282 C66.038,36.282 65.198,35.288 65.198,33.776 L70.616,33.776 C70.714,31.088 69.454,29.478 67.256,29.478 C65.268,29.478 63.84,30.99 63.84,33.412 C63.84,35.638 64.974,37.332 67.256,37.332 Z M67.256,30.542 C68.572,30.542 69.258,31.48 69.244,32.712 L65.212,32.712 C65.268,31.256 66.038,30.542 67.256,30.542 Z" id="Shape"></path>
                <path d="M6.286,59.068 C6.286,62.512 4.284,62.89 2.394,62.89 L2.03,62.89 L2.03,55.26 L2.394,55.26 C4.284,55.26 6.286,55.61 6.286,59.068 Z M0.7,54 L0.7,64.15 L2.436,64.15 C5.32,64.15 7.644,62.932 7.644,59.068 C7.644,55.19 5.32,54 2.436,54 L0.7,54 Z" id="Shape"></path>
                <path d="M12.992,64.332 C14.756,64.332 15.932,63.324 16.24,61.896 L14.91,61.896 C14.644,62.75 14.084,63.282 12.964,63.282 C11.774,63.282 10.934,62.288 10.934,60.776 L16.352,60.776 C16.45,58.088 15.19,56.478 12.992,56.478 C11.004,56.478 9.576,57.99 9.576,60.412 C9.576,62.638 10.71,64.332 12.992,64.332 Z M12.992,57.542 C14.308,57.542 14.994,58.48 14.98,59.712 L10.948,59.712 C11.004,58.256 11.774,57.542 12.992,57.542 Z" id="Shape"></path>
                <path d="M22.134,56.492 C19.978,56.492 18.676,58.172 18.676,60.412 C18.676,62.708 19.922,64.332 22.008,64.332 C23.688,64.332 25.032,63.226 25.242,61.728 L23.912,61.728 C23.744,62.54 23.1,63.282 22.078,63.282 C20.958,63.282 20.034,62.33 20.034,60.412 C20.034,58.522 20.958,57.556 22.078,57.556 C23.002,57.556 23.688,58.2 23.856,59.124 L25.158,59.124 C25.046,57.766 23.884,56.492 22.134,56.492 Z" id="Path"></path>
                <polygon id="Path" points="28.308 54 28.308 55.092 30.436 55.092 30.436 63.044 28.308 63.044 28.308 64.15 33.866 64.15 33.866 63.044 31.724 63.044 31.724 54"></polygon>
                <path d="M39.326,64.332 C40.726,64.332 41.51,63.828 41.972,63.044 L41.986,64.15 L43.218,64.15 C43.176,63.646 43.106,62.568 43.12,61.308 L43.134,59.474 C43.162,57.388 42.266,56.464 40.18,56.464 C38.612,56.464 37.184,57.374 37.058,58.998 L38.374,58.998 C38.458,58.074 39.004,57.5 40.166,57.5 C41.146,57.5 41.86,57.892 41.86,59.194 L41.86,59.516 C38.78,59.852 36.876,60.398 36.876,62.19 C36.876,63.548 37.968,64.332 39.326,64.332 Z M41.958,60.748 C41.958,62.75 40.838,63.296 39.69,63.296 C38.78,63.296 38.262,62.876 38.262,62.162 C38.262,61.084 39.662,60.762 41.958,60.538 L41.958,60.748 Z" id="Shape"></path>
                <path d="M45.808,56.618 L45.808,57.724 L47.95,57.724 L47.95,63.044 L45.822,63.044 L45.822,64.15 L51.814,64.15 L51.814,63.044 L49.238,63.044 L49.238,60.398 C49.238,58.746 49.798,57.794 51.24,57.794 L52.514,57.794 L52.514,56.618 L51.226,56.618 C50.302,56.618 49.574,57.122 49.21,57.962 L49.21,56.618 L45.808,56.618 Z" id="Path"></path>
                <path d="M57.414,64.332 C58.814,64.332 59.598,63.828 60.06,63.044 L60.074,64.15 L61.306,64.15 C61.264,63.646 61.194,62.568 61.208,61.308 L61.222,59.474 C61.25,57.388 60.354,56.464 58.268,56.464 C56.7,56.464 55.272,57.374 55.146,58.998 L56.462,58.998 C56.546,58.074 57.092,57.5 58.254,57.5 C59.234,57.5 59.948,57.892 59.948,59.194 L59.948,59.516 C56.868,59.852 54.964,60.398 54.964,62.19 C54.964,63.548 56.056,64.332 57.414,64.332 Z M60.046,60.748 C60.046,62.75 58.926,63.296 57.778,63.296 C56.868,63.296 56.35,62.876 56.35,62.162 C56.35,61.084 57.75,60.762 60.046,60.538 L60.046,60.748 Z" id="Shape"></path>
                <path d="M65.45,56.618 L63.308,56.618 L63.308,57.724 L65.45,57.724 L65.45,62.26 C65.45,63.828 65.842,64.15 67.214,64.15 L69.818,64.15 L69.818,63.044 L67.494,63.044 C66.78,63.044 66.738,62.848 66.738,62.078 L66.738,57.724 L69.818,57.724 L69.818,56.618 L66.738,56.618 L66.738,54.728 L65.45,54.728 L65.45,56.618 Z" id="Path"></path>
                <path d="M75.74,54 L75.74,55.526 L77.028,55.526 L77.028,54 L75.74,54 Z M73.612,56.618 L73.612,57.724 L75.74,57.724 L75.74,63.044 L73.612,63.044 L73.612,64.15 L79.17,64.15 L79.17,63.044 L77.028,63.044 L77.028,56.618 L73.612,56.618 Z" id="Shape"></path>
                <path d="M83.174,60.412 C83.174,58.41 84.154,57.57 85.302,57.57 C86.45,57.57 87.43,58.41 87.43,60.412 C87.43,62.414 86.45,63.254 85.302,63.254 C84.154,63.254 83.174,62.414 83.174,60.412 Z M81.816,60.412 C81.816,63.142 83.58,64.332 85.302,64.332 C87.024,64.332 88.788,63.142 88.788,60.412 C88.788,57.682 87.024,56.492 85.302,56.492 C83.58,56.492 81.816,57.682 81.816,60.412 Z" id="Shape"></path>
                <path d="M92.708,56.618 L91.42,56.618 L91.42,64.15 L92.708,64.15 L92.708,60.062 C92.708,58.452 93.338,57.584 94.5,57.584 C95.9,57.584 95.998,58.592 95.998,59.81 L95.998,64.15 L97.286,64.15 L97.286,59.362 C97.286,57.696 96.74,56.492 94.92,56.492 C93.73,56.492 93.086,57.038 92.708,57.682 L92.708,56.618 Z" id="Path"></path>
            </g>
            <g id="Group-Copy" transform="translate(209.030000, 62.150000) scale(-1, 1) translate(-209.030000, -62.150000) translate(201.530000, 22.150000)">
                <path d="M15,-0.5 L15,0.5 C10.5517302,0.5 7.95822367,3.17116608 7.87438612,10.8088208 L7.87228867,11.1948529 L7.87228867,27.254902 C7.87228867,28.1665916 7.83689665,29.0573135 7.76400904,29.9180644 L7.70228005,30.5578674 C7.09432459,36.1573356 4.81758318,40.3425701 0.260393737,40.4956585 L0,40.5 L0,39.5 C4.71139599,39.5 6.80216788,34.212765 6.87055156,27.5926476 L6.87228867,27.254902 L6.87228867,11.1948529 C6.87228867,2.85361953 9.81767117,-0.398054578 14.7630002,-0.49763296 L15,-0.5 Z" id="Path"></path>
                <path d="M15,39.5 L15,40.5 C10.5515962,40.5 7.95821928,43.1679612 7.87438601,50.7964378 L7.87228867,51.182006 L7.87228867,67.2236248 C7.87228867,74.4131673 5.67637835,80.3130278 0.260344429,80.4956432 L0,80.5 L0,79.5 C3.51219539,79.5 5.568935,76.5477305 6.41610668,72.2967458 L6.52415586,71.7091714 C6.74211829,70.4193252 6.85546909,69.0226709 6.87055001,67.5618556 L6.87228867,67.2236248 L6.87228867,51.182006 C6.87228867,42.8499219 9.81780317,39.601833 14.7630064,39.5023644 L15,39.5 Z" id="Path-Copy" transform="translate(7.500000, 60.000000) scale(1, -1) translate(-7.500000, -60.000000) "></path>
            </g>
        </g>
        <g id="Group-5" transform="translate(179.000000, 80.000000)" fill="#10162F" fill-rule="nonzero">
            <path d="M61.9105,-0.5 C62.1866424,-0.5 62.4105,-0.276142375 62.4105,0 C62.4105,0.245459889 62.2336248,0.44960837 62.0003756,0.491944331 L61.9105,0.5 L12.9265,0.5 C9.48707406,0.5 6.657938,3.25436593 6.53655752,6.66563209 L6.5325,6.894 L6.5325,17.876 C6.5325,18.1521424 6.30864237,18.376 6.0325,18.376 C5.78704011,18.376 5.58289163,18.1991248 5.54055567,17.9658756 L5.5325,17.876 L5.5325,6.894 C5.5325,2.90722047 8.72665366,-0.366668781 12.6833229,-0.496029639 L12.9265,-0.5 L61.9105,-0.5 Z" id="Stroke-1"></path>
            <path d="M-0.353553391,12.3409466 C-0.179987039,12.1673803 0.0894373624,12.1480951 0.284305503,12.2830912 L0.353553391,12.3409466 L6.032,18.019 L11.7114759,12.3409173 C11.8850567,12.1673653 12.1544827,12.1481025 12.3493396,12.2831147 L12.4185827,12.3409759 C12.5921347,12.5145567 12.6113975,12.7839827 12.4763853,12.9788396 L12.4185241,13.0480827 L6.38552409,19.0800827 C6.21195352,19.2536245 5.94254651,19.2728965 5.74769032,19.1379059 L5.67844661,19.0800534 L-0.353553391,13.0480534 C-0.548815536,12.8527912 -0.548815536,12.5362088 -0.353553391,12.3409466 Z" id="Stroke-3"></path>
        </g>
        <g id="Group-5-Copy" transform="translate(107.955250, 89.363250) scale(-1, 1) translate(-107.955250, -89.363250) translate(87.000000, 80.000000)" fill="#10162F" fill-rule="nonzero">
            <path d="M41.9105,-0.5 C42.1866424,-0.5 42.4105,-0.276142375 42.4105,0 C42.4105,0.245459889 42.2336248,0.44960837 42.0003756,0.491944331 L41.9105,0.5 L12.9265,0.5 C9.48707406,0.5 6.657938,3.25436593 6.53655752,6.66563209 L6.5325,6.894 L6.5325,17.876 C6.5325,18.1521424 6.30864237,18.376 6.0325,18.376 C5.78704011,18.376 5.58289163,18.1991248 5.54055567,17.9658756 L5.5325,17.876 L5.5325,6.894 C5.5325,2.90722047 8.72665366,-0.366668781 12.6833229,-0.496029639 L12.9265,-0.5 L41.9105,-0.5 Z" id="Stroke-1"></path>
            <path d="M-0.353553391,12.3409466 C-0.179987039,12.1673803 0.0894373624,12.1480951 0.284305503,12.2830912 L0.353553391,12.3409466 L6.032,18.019 L11.7114759,12.3409173 C11.8850567,12.1673653 12.1544827,12.1481025 12.3493396,12.2831147 L12.4185827,12.3409759 C12.5921347,12.5145567 12.6113975,12.7839827 12.4763853,12.9788396 L12.4185241,13.0480827 L6.38552409,19.0800827 C6.21195352,19.2536245 5.94254651,19.2728965 5.74769032,19.1379059 L5.67844661,19.0800534 L-0.353553391,13.0480534 C-0.548815536,12.8527912 -0.548815536,12.5362088 -0.353553391,12.3409466 Z" id="Stroke-3"></path>
        </g>
    </g>
</svg>